<?xml version="1.0" encoding="UTF-8"?>
<svg width="72px" height="81px" viewBox="0 0 72 81" version="1.1" xmlns="http://www.w3.org/2000/svg" xmlns:xlink="http://www.w3.org/1999/xlink">
    <title>Group 4</title>
    <g id="Page-1" stroke="none" stroke-width="1" fill="none" fill-rule="evenodd">
        <g id="Artboard-Copy-4" transform="translate(-18.000000, -14.000000)" fill="#E54D2E">
            <g id="Group-4" transform="translate(18.000000, 14.000000)">
                <g id="Group-2" transform="translate(0.000000, 31.888889)">
                    <polygon id="Path-3-Copy-3" points="-2.13162821e-14 11.0590762 -2.14407123e-14 -2.84217094e-14 35.8645699 21.9588119 35.8645699 32.994297"></polygon>
                    <polygon id="Path-3-Copy-2" transform="translate(53.487840, 16.497149) scale(-1, 1) translate(-53.487840, -16.497149) " points="35.5555556 11.0590762 35.5555556 -2.84217094e-14 71.4201254 21.9588119 71.4201254 32.994297"></polygon>
                </g>
                <g id="Group-3" transform="translate(0.000000, 47.888889)">
                    <polygon id="Path-3-Copy-5" points="-2.13162821e-14 11.0590762 -2.14407123e-14 -3.19744231e-14 35.8645699 21.9588119 35.8645699 32.994297"></polygon>
                    <polygon id="Path-3-Copy-4" transform="translate(53.487840, 16.497149) scale(-1, 1) translate(-53.487840, -16.497149) " points="35.5555556 11.0590762 35.5555556 -3.19744231e-14 71.4201254 21.9588119 71.4201254 32.994297"></polygon>
                </g>
                <g id="Group" transform="translate(0.000000, 16.000000)">
                    <polygon id="Path-3-Copy-7" points="-2.13162821e-14 11.0590762 -2.14407123e-14 -2.84217094e-14 35.8645699 21.9588119 35.8645699 32.994297"></polygon>
                    <polygon id="Path-3-Copy-6" transform="translate(53.487840, 16.497149) scale(-1, 1) translate(-53.487840, -16.497149) " points="35.5555556 11.0590762 35.5555556 -2.84217094e-14 71.4201254 21.9588119 71.4201254 32.994297"></polygon>
                </g>
                <g id="Group-Copy">
                    <polygon id="Path-3-Copy-7" points="-2.13162821e-14 11.0590762 -2.14407123e-14 -2.84217094e-14 35.8645699 21.9588119 35.8645699 32.994297"></polygon>
                    <polygon id="Path-3-Copy-6" transform="translate(53.487840, 16.497149) scale(-1, 1) translate(-53.487840, -16.497149) " points="35.5555556 11.0590762 35.5555556 -2.84217094e-14 71.4201254 21.9588119 71.4201254 32.994297"></polygon>
                </g>
                <polygon id="Path-7" points="71.4201254 27.0590762 71.4201254 47.8888889 64.8493194 52.02305 64.8493194 31.0810698"></polygon>
            </g>
        </g>
    </g>
</svg>