<?xml version="1.0" encoding="UTF-8"?>
<svg width="260px" height="37px" viewBox="0 0 260 37" version="1.1" xmlns="http://www.w3.org/2000/svg" xmlns:xlink="http://www.w3.org/1999/xlink">
    <title>Group 7</title>
    <g id="Brand" stroke="none" stroke-width="1" fill="none" fill-rule="evenodd">
        <g id="Artboard" transform="translate(-49.000000, -476.000000)" fill="#FFFFFF">
            <g id="Group-7" transform="translate(49.000000, 476.000000)">
                <path d="M61.36,29 L69.08,8.96 L64.28,8.96 L59.04,23.96 L53.84,8.96 L49,8.96 L56.52,29 L61.36,29 Z M79.84,29.48 C85.64,29.48 89.48,25.2 89.48,19.04 C89.48,12.84 85.64,8.52 79.84,8.52 C74.04,8.52 70.16,12.84 70.16,19.04 C70.16,25.2 74.04,29.48 79.84,29.48 Z M79.84,25.68 C76.68,25.68 74.8,23.2 74.8,19.04 C74.8,14.84 76.68,12.32 79.84,12.32 C82.96,12.32 84.84,14.84 84.84,19.04 C84.84,23.2 82.96,25.68 79.84,25.68 Z M98.48,6.08 L98.48,1 L93.12,1 L93.12,6.08 L98.48,6.08 Z M98.04,29 L98.04,8.96 L93.48,8.96 L93.48,29 L98.04,29 Z M111.56,29.48 C116.68,29.48 120.12,26.16 120.64,21.48 L116.08,21.48 C115.72,23.8 114.4,25.68 111.68,25.68 C108.68,25.68 106.68,23.32 106.68,19 C106.68,14.76 108.6,12.32 111.6,12.32 C114.28,12.32 115.8,14.04 116.08,16.24 L120.68,16.24 C120.24,11.76 116.8,8.52 111.64,8.52 C105.84,8.52 102.04,12.84 102.04,19.04 C102.04,25.24 105.84,29.48 111.56,29.48 Z M132.96,29.48 C138,29.48 141.12,26.6 141.88,22.84 L137.4,22.84 C136.84,24.6 135.32,25.72 133.04,25.72 C129.92,25.72 127.88,23.44 127.64,19.56 L142,19.56 C142.04,19 142.04,18.68 142.04,18.48 C142.04,12.52 138.48,8.52 132.8,8.52 C127,8.52 123.08,12.76 123.08,19.04 C123.08,25.32 127,29.48 132.96,29.48 Z M137.24,16.08 L128,16.08 C128.44,13.76 130.36,12.12 132.8,12.12 C135.24,12.12 137,13.6 137.24,16.08 Z M157.44,29.4 C162.16,29.4 164.84,25.08 164.84,18.92 C164.84,12.84 162.2,8.52 157.52,8.52 C154.88,8.52 152.36,10.12 150.64,12.96 L150.64,1 L146.08,1 L146.08,29 L150.6,29 L150.6,24.92 C152.28,27.76 154.76,29.4 157.44,29.4 Z M156.12,25.48 C153.84,25.48 150.52,23.04 150.52,18.96 C150.52,14.88 153.96,12.44 156.24,12.44 C158.64,12.44 160.24,14.64 160.24,18.92 C160.24,23.28 158.6,25.48 156.12,25.48 Z M173.52,29 L173.52,19.28 C173.52,15.48 175.44,12.8 177.52,12.8 C178.8,12.8 179.44,13.76 179.44,15.48 L179.44,16.2 L183.4,16.2 L183.4,14.84 C183.4,11.4 182.4,8.52 179.28,8.52 C176.56,8.52 174.6,10.88 173.48,13.68 L173.48,8.96 L168.96,8.96 L168.96,29 L173.52,29 Z M191.68,6.08 L191.68,1 L186.32,1 L186.32,6.08 L191.68,6.08 Z M191.24,29 L191.24,8.96 L186.68,8.96 L186.68,29 L191.24,29 Z M202.76,29.4 C205.52,29.4 207.96,27.72 209.64,24.84 L209.64,29 L214.12,29 L214.12,1 L209.56,1 L209.56,12.92 C207.84,10.08 205.32,8.52 202.72,8.52 C198.04,8.52 195.36,12.84 195.36,18.92 C195.36,25.08 198.04,29.4 202.76,29.4 Z M204.12,25.48 C201.64,25.48 200,23.28 200,18.92 C200,14.64 201.56,12.44 204,12.44 C206.24,12.44 209.68,14.88 209.68,18.96 C209.68,23.04 206.4,25.48 204.12,25.48 Z M227.64,36.28 C233.64,36.28 237.12,33.2 237.12,27.48 L237.12,8.96 L232.6,8.96 L232.6,12.96 C230.88,10.08 228.4,8.52 225.72,8.52 C221.32,8.52 218.24,12.76 218.24,18.68 C218.24,24.48 221.32,28.64 225.8,28.64 C228.56,28.64 230.88,27 232.56,24.32 L232.56,27.88 C232.56,31.32 230.44,32.64 227.56,32.64 C224.92,32.64 223.52,31.52 223.08,30 L218.48,30 C219.04,33.84 222.36,36.28 227.64,36.28 Z M227.16,24.84 C224.68,24.84 222.8,22.64 222.8,18.64 C222.8,14.6 224.6,12.44 227.04,12.44 C229.28,12.44 232.68,14.84 232.68,18.68 C232.68,22.36 229.4,24.84 227.16,24.84 Z M250.92,29.48 C255.96,29.48 259.08,26.6 259.84,22.84 L255.36,22.84 C254.8,24.6 253.28,25.72 251,25.72 C247.88,25.72 245.84,23.44 245.6,19.56 L259.96,19.56 C260,19 260,18.68 260,18.48 C260,12.52 256.44,8.52 250.76,8.52 C244.96,8.52 241.04,12.76 241.04,19.04 C241.04,25.32 244.96,29.48 250.92,29.48 Z M255.2,16.08 L245.96,16.08 C246.4,13.76 248.32,12.12 250.76,12.12 C253.2,12.12 254.96,13.6 255.2,16.08 Z" id="voicebridge" fill-rule="nonzero"></path>
                <polygon id="Path-3" points="-2.84217094e-14 5.32907052e-14 11.5748631 5.32907052e-14 23.1497261 35.1596346 11.5748631 35.1596346"></polygon>
                <polygon id="Path-3-Copy-2" transform="translate(27.574863, 9.500000) scale(-1, 1) translate(-27.574863, -9.500000) " points="16 1 27.5748631 1 39.1497261 18 27.5748631 18"></polygon>
                <polygon id="Path-3-Copy-8" transform="translate(27.574863, 26.500000) scale(1, -1) translate(-27.574863, -26.500000) " points="16 18 27.5748631 18 39.1497261 35 27.5748631 35"></polygon>
            </g>
        </g>
    </g>
</svg>