<?xml version="1.0" encoding="UTF-8"?>
<svg width="257px" height="41px" viewBox="0 0 257 41" version="1.1" xmlns="http://www.w3.org/2000/svg" xmlns:xlink="http://www.w3.org/1999/xlink">
    <title>Group 6 Copy</title>
    <g id="Page-1" stroke="none" stroke-width="1" fill="none" fill-rule="evenodd">
        <g id="Artboard" transform="translate(-77.000000, -494.000000)">
            <g id="Group-6-Copy" transform="translate(77.000000, 494.000000)">
                <path d="M58.36,31 L66.08,10.96 L61.28,10.96 L56.04,25.96 L50.84,10.96 L46,10.96 L53.52,31 L58.36,31 Z M76.84,31.48 C82.64,31.48 86.48,27.2 86.48,21.04 C86.48,14.84 82.64,10.52 76.84,10.52 C71.04,10.52 67.16,14.84 67.16,21.04 C67.16,27.2 71.04,31.48 76.84,31.48 Z M76.84,27.68 C73.68,27.68 71.8,25.2 71.8,21.04 C71.8,16.84 73.68,14.32 76.84,14.32 C79.96,14.32 81.84,16.84 81.84,21.04 C81.84,25.2 79.96,27.68 76.84,27.68 Z M95.48,8.08 L95.48,3 L90.12,3 L90.12,8.08 L95.48,8.08 Z M95.04,31 L95.04,10.96 L90.48,10.96 L90.48,31 L95.04,31 Z M108.56,31.48 C113.68,31.48 117.12,28.16 117.64,23.48 L113.08,23.48 C112.72,25.8 111.4,27.68 108.68,27.68 C105.68,27.68 103.68,25.32 103.68,21 C103.68,16.76 105.6,14.32 108.6,14.32 C111.28,14.32 112.8,16.04 113.08,18.24 L117.68,18.24 C117.24,13.76 113.8,10.52 108.64,10.52 C102.84,10.52 99.04,14.84 99.04,21.04 C99.04,27.24 102.84,31.48 108.56,31.48 Z M129.96,31.48 C135,31.48 138.12,28.6 138.88,24.84 L134.4,24.84 C133.84,26.6 132.32,27.72 130.04,27.72 C126.92,27.72 124.88,25.44 124.64,21.56 L139,21.56 C139.04,21 139.04,20.68 139.04,20.48 C139.04,14.52 135.48,10.52 129.8,10.52 C124,10.52 120.08,14.76 120.08,21.04 C120.08,27.32 124,31.48 129.96,31.48 Z M134.24,18.08 L125,18.08 C125.44,15.76 127.36,14.12 129.8,14.12 C132.24,14.12 134,15.6 134.24,18.08 Z M154.44,31.4 C159.16,31.4 161.84,27.08 161.84,20.92 C161.84,14.84 159.2,10.52 154.52,10.52 C151.88,10.52 149.36,12.12 147.64,14.96 L147.64,3 L143.08,3 L143.08,31 L147.6,31 L147.6,26.92 C149.28,29.76 151.76,31.4 154.44,31.4 Z M153.12,27.48 C150.84,27.48 147.52,25.04 147.52,20.96 C147.52,16.88 150.96,14.44 153.24,14.44 C155.64,14.44 157.24,16.64 157.24,20.92 C157.24,25.28 155.6,27.48 153.12,27.48 Z M170.52,31 L170.52,21.28 C170.52,17.48 172.44,14.8 174.52,14.8 C175.8,14.8 176.44,15.76 176.44,17.48 L176.44,18.2 L180.4,18.2 L180.4,16.84 C180.4,13.4 179.4,10.52 176.28,10.52 C173.56,10.52 171.6,12.88 170.48,15.68 L170.48,10.96 L165.96,10.96 L165.96,31 L170.52,31 Z M188.68,8.08 L188.68,3 L183.32,3 L183.32,8.08 L188.68,8.08 Z M188.24,31 L188.24,10.96 L183.68,10.96 L183.68,31 L188.24,31 Z M199.76,31.4 C202.52,31.4 204.96,29.72 206.64,26.84 L206.64,31 L211.12,31 L211.12,3 L206.56,3 L206.56,14.92 C204.84,12.08 202.32,10.52 199.72,10.52 C195.04,10.52 192.36,14.84 192.36,20.92 C192.36,27.08 195.04,31.4 199.76,31.4 Z M201.12,27.48 C198.64,27.48 197,25.28 197,20.92 C197,16.64 198.56,14.44 201,14.44 C203.24,14.44 206.68,16.88 206.68,20.96 C206.68,25.04 203.4,27.48 201.12,27.48 Z M224.64,38.28 C230.64,38.28 234.12,35.2 234.12,29.48 L234.12,10.96 L229.6,10.96 L229.6,14.96 C227.88,12.08 225.4,10.52 222.72,10.52 C218.32,10.52 215.24,14.76 215.24,20.68 C215.24,26.48 218.32,30.64 222.8,30.64 C225.56,30.64 227.88,29 229.56,26.32 L229.56,29.88 C229.56,33.32 227.44,34.64 224.56,34.64 C221.92,34.64 220.52,33.52 220.08,32 L215.48,32 C216.04,35.84 219.36,38.28 224.64,38.28 Z M224.16,26.84 C221.68,26.84 219.8,24.64 219.8,20.64 C219.8,16.6 221.6,14.44 224.04,14.44 C226.28,14.44 229.68,16.84 229.68,20.68 C229.68,24.36 226.4,26.84 224.16,26.84 Z M247.92,31.48 C252.96,31.48 256.08,28.6 256.84,24.84 L252.36,24.84 C251.8,26.6 250.28,27.72 248,27.72 C244.88,27.72 242.84,25.44 242.6,21.56 L256.96,21.56 C257,21 257,20.68 257,20.48 C257,14.52 253.44,10.52 247.76,10.52 C241.96,10.52 238.04,14.76 238.04,21.04 C238.04,27.32 241.96,31.48 247.92,31.48 Z M252.2,18.08 L242.96,18.08 C243.4,15.76 245.32,14.12 247.76,14.12 C250.2,14.12 251.96,15.6 252.2,18.08 Z" id="voicebridge" fill="#FFFFFF" fill-rule="nonzero"></path>
                <g id="Group-4-Copy" fill="#E54D2E">
                    <g id="Group-2" transform="translate(0.000000, 15.944444)">
                        <polygon id="Path-3-Copy-3" points="-1.0658141e-14 5.52953811 -1.07203561e-14 -1.42108547e-14 17.9322849 10.9794059 17.9322849 16.4971485"></polygon>
                        <polygon id="Path-3-Copy-2" transform="translate(26.743920, 8.248574) scale(-1, 1) translate(-26.743920, -8.248574) " points="17.7777778 5.52953811 17.7777778 -1.42108547e-14 35.7100627 10.9794059 35.7100627 16.4971485"></polygon>
                    </g>
                    <g id="Group-3" transform="translate(0.000000, 23.944444)">
                        <polygon id="Path-3-Copy-5" points="-1.0658141e-14 5.52953811 -1.07203561e-14 -1.59872116e-14 17.9322849 10.9794059 17.9322849 16.4971485"></polygon>
                        <polygon id="Path-3-Copy-4" transform="translate(26.743920, 8.248574) scale(-1, 1) translate(-26.743920, -8.248574) " points="17.7777778 5.52953811 17.7777778 -1.59872116e-14 35.7100627 10.9794059 35.7100627 16.4971485"></polygon>
                    </g>
                    <g id="Group" transform="translate(0.000000, 8.000000)">
                        <polygon id="Path-3-Copy-7" points="-1.0658141e-14 5.52953811 -1.07203561e-14 -1.42108547e-14 17.9322849 10.9794059 17.9322849 16.4971485"></polygon>
                        <polygon id="Path-3-Copy-6" transform="translate(26.743920, 8.248574) scale(-1, 1) translate(-26.743920, -8.248574) " points="17.7777778 5.52953811 17.7777778 -1.42108547e-14 35.7100627 10.9794059 35.7100627 16.4971485"></polygon>
                    </g>
                    <g id="Group-Copy">
                        <polygon id="Path-3-Copy-7" points="-1.0658141e-14 5.52953811 -1.07203561e-14 -1.42108547e-14 17.9322849 10.9794059 17.9322849 16.4971485"></polygon>
                        <polygon id="Path-3-Copy-6" transform="translate(26.743920, 8.248574) scale(-1, 1) translate(-26.743920, -8.248574) " points="17.7777778 5.52953811 17.7777778 -1.42108547e-14 35.7100627 10.9794059 35.7100627 16.4971485"></polygon>
                    </g>
                    <polygon id="Path-7" points="35.7100627 13.5295381 35.7100627 23.9444444 32.4246597 26.011525 32.4246597 15.5405349"></polygon>
                </g>
            </g>
        </g>
    </g>
</svg>